<?xml version="1.0" encoding="utf-8"?>
<!-- Generator: Adobe Illustrator 19.2.1, SVG Export Plug-In . SVG Version: 6.00 Build 0)  -->
<svg version="1.1" id="Layer_1" xmlns="http://www.w3.org/2000/svg" xmlns:xlink="http://www.w3.org/1999/xlink" x="0px" y="0px"
	 viewBox="0 0 1000 1000" style="enable-background:new 0 0 1000 1000;" xml:space="preserve">
<style type="text/css">
	.st0{fill:url(#SVGID_1_);}
</style>
<g>
	<linearGradient id="SVGID_1_" gradientUnits="userSpaceOnUse" x1="502.8857" y1="36.0862" x2="502.8857" y2="963.9138">
		<stop  offset="0" style="stop-color:#FFC54B"/>
		<stop  offset="8.606600e-002" style="stop-color:#FCB437"/>
		<stop  offset="0.1885" style="stop-color:#FAA627"/>
		<stop  offset="0.294" style="stop-color:#F99E1E"/>
		<stop  offset="0.4064" style="stop-color:#F99B1C"/>
		<stop  offset="1" style="stop-color:#F2612F"/>
	</linearGradient>
	<circle class="st0" cx="502.9" cy="500" r="463.9"/>
</g>
<g>
	<path d="M487.4,894.6"/>
</g>
<path d="M646.9,438.1c-3.9,30.7-2.2,62.9-11.4,91.9c-12,37.9-26.9,96.1-51.9,107.2c-40.3,4.4-106.1,4.8-163.3,1.1
	c-10.1-0.6-27.2-23.3-32.4-37.7c-36.9-102-45.2-204.4-9-309.7c14.8-43.1,33.7-61,82.3-63.1c140.5-6.2,168.9,14.4,182.6,154.4
	 M583.6,403c0-53.3-30.1-83.6-76.8-83.2c-51.1-0.3-86.4,32.2-86.5,80.2c-0.1,43.6,38.9,83.1,83.2,80
	C550.9,476.7,583.6,451.5,583.6,403z"/>
<path d="M626.9,634.1c12.3-49.8,23.4-95.1,35.1-142.5c1.6-6.7,10-9.2,15-4.5c46.3,44,30.3,103.2,34.9,165c0.5,6.2-5.1,11-11.1,9.5
	c-24.5-6-45.5-11.2-67.2-16.6C628.6,643.9,625.7,639,626.9,634.1z"/>
<path d="M373,643.7c-22.8,5.7-44.7,11.3-69,17.3c-5.2,1.3-10.2-2.5-10.3-7.8c-1.7-59.2-16.8-117,32.3-162.4c4.6-4.2,12-2.2,13.7,3.8
	c12.8,45.5,25.5,90.4,39.2,138.7C380.2,637.8,377.5,642.5,373,643.7z"/>
<path d="M424.1,196.8c23.2-30.8,46-61.1,70.8-94c2.6-3.5,7.9-3.6,10.7-0.2c24.7,30.6,48.7,60.2,76,94c3.5,4.4,0.5,11-5.1,11h-147
	C423.9,207.6,420.8,201.2,424.1,196.8z"/>
<path d="M502.2,899.9c-28.3-63-78.7-107-48.6-180.1c16.3,31.7,28.8,56,48.1,93.4c20.6-36.5,34-60.2,49.2-87.1
	C576.5,795.4,528.3,838.3,502.2,899.9"/>
<path d="M568.6,661.6c-48.1,53.7-102.9,50.2-138,0H568.6z"/>
<path d="M502.6,446.4c-36.4,0-45.5-31.1-45.5-48c0-18.1,14-45.2,45.5-45.2c31.5,0,44.3,30.3,44.3,46.1
	C546.9,417.3,536.9,446.4,502.6,446.4z"/>
</svg>
