<?xml version="1.0" encoding="utf-8"?>
<!-- Generator: Adobe Illustrator 19.2.1, SVG Export Plug-In . SVG Version: 6.00 Build 0)  -->
<svg version="1.1" id="Layer_1" xmlns="http://www.w3.org/2000/svg" xmlns:xlink="http://www.w3.org/1999/xlink" x="0px" y="0px"
	 viewBox="0 0 1000 1000" style="enable-background:new 0 0 1000 1000;" xml:space="preserve">
<style type="text/css">
	.st0{fill:url(#SVGID_1_);}
</style>
<g>
	
		<linearGradient id="SVGID_1_" gradientUnits="userSpaceOnUse" x1="500" y1="1000" x2="500" y2="0" gradientTransform="matrix(1 0 0 -1 0 1000)">
		<stop  offset="0" style="stop-color:#FFC54B"/>
		<stop  offset="8.606600e-002" style="stop-color:#FCB437"/>
		<stop  offset="0.1885" style="stop-color:#FAA627"/>
		<stop  offset="0.294" style="stop-color:#F99E1E"/>
		<stop  offset="0.4064" style="stop-color:#F99B1C"/>
		<stop  offset="1" style="stop-color:#F2612F"/>
	</linearGradient>
	<circle class="st0" cx="500" cy="500" r="500"/>
</g>
<g>
	<path d="M483.3,925.3"/>
</g>
<path d="M655.2,433.3c-4.2,33.1-2.4,67.8-12.3,99.1c-12.9,40.8-29,103.6-55.9,115.5c-43.4,4.7-114.4,5.2-176,1.2
	c-10.9-0.6-29.3-25.1-34.9-40.6c-39.8-109.9-48.7-220.3-9.7-333.8c16-46.5,36.3-65.7,88.7-68c151.4-6.7,182,15.5,196.8,166.4
	 M587,395.5c0-57.4-32.4-90.1-82.8-89.7c-55.1-0.3-93.1,34.7-93.2,86.4c-0.1,47,41.9,89.6,89.7,86.2
	C551.7,474.9,587,447.7,587,395.5z"/>
<path d="M633.6,644.5c13.3-53.7,25.2-102.5,37.8-153.6c1.7-7.2,10.8-9.9,16.2-4.9c49.9,47.4,32.7,111.2,37.6,177.8
	c0.5,6.7-5.5,11.9-12,10.2c-26.4-6.5-49-12.1-72.4-17.9C635.5,655.1,632.4,649.8,633.6,644.5z"/>
<path d="M360,654.9c-24.6,6.1-48.2,12.2-74.4,18.6c-5.6,1.4-11-2.7-11.1-8.4c-1.8-63.8-18.1-126.1,34.8-175c5-4.5,12.9-2.4,14.8,4.1
	c13.8,49,27.5,97.4,42.3,149.5C367.8,648.5,364.8,653.6,360,654.9z"/>
<path d="M415.1,173.2c25-33.2,49.6-65.9,76.3-101.3c2.8-3.8,8.5-3.9,11.5-0.2c26.6,33,52.5,64.9,81.9,101.3
	c3.8,4.7,0.5,11.9-5.5,11.9H420.9C414.9,184.8,411.5,177.9,415.1,173.2z"/>
<path d="M499.2,931c-30.5-67.9-84.8-115.3-52.4-194.1c17.6,34.2,31,60.4,51.8,100.7c22.2-39.3,36.6-64.9,53-93.9
	C579.3,818.4,527.4,864.6,499.2,931"/>
<path d="M570.8,674.2c-51.8,57.9-110.9,54.1-148.7,0H570.8z"/>
<path d="M499.7,442.2c-39.2,0-49-33.5-49-51.7c0-19.5,15.1-48.7,49-48.7s47.7,32.7,47.7,49.7C547.4,410.9,536.6,442.2,499.7,442.2z"
	/>
</svg>
