<?xml version="1.0" encoding="utf-8"?>
<!-- Generator: Adobe Illustrator 19.2.1, SVG Export Plug-In . SVG Version: 6.00 Build 0)  -->
<svg version="1.1" id="Layer_1" xmlns="http://www.w3.org/2000/svg" xmlns:xlink="http://www.w3.org/1999/xlink" x="0px" y="0px"
	 viewBox="0 0 612 792" style="enable-background:new 0 0 612 792;" xml:space="preserve">
<g>
	<path d="M444.3,343.2c-3.7,29.1-2.1,59.6-10.8,87.2c-11.4,35.9-25.5,91.1-49.2,101.6c-38.2,4.2-100.6,4.5-154.9,1
		c-9.5-0.6-25.8-22.1-30.7-35.8c-35-96.7-42.9-193.8-8.5-293.7c14.1-40.9,32-57.8,78.1-59.8c133.2-5.9,160.2,13.7,173.1,146.4
		 M384.3,309.9c0-50.6-28.6-79.2-72.8-78.9c-48.4-0.3-82,30.5-82,76.1c0,41.4,36.9,78.8,78.9,75.9
		C353.3,379.8,384.3,356,384.3,309.9z"/>
	<path d="M425.3,529.1C437,481.9,447.5,439,458.6,394c1.6-6.3,9.5-8.8,14.2-4.3c43.9,41.8,28.8,97.9,33.1,156.5
		c0.4,5.9-4.9,10.5-10.6,9.1c-23.2-5.7-43.2-10.6-63.7-15.7C427,538.4,424.2,533.7,425.3,529.1z"/>
	<path d="M184.6,538.2c-21.6,5.4-42.4,10.7-65.4,16.4c-4.9,1.2-9.7-2.4-9.8-7.4c-1.6-56.2-15.9-110.9,30.7-154
		c4.3-4,11.4-2.1,13,3.6c12.2,43.1,24.2,85.7,37.2,131.5C191.4,532.6,188.9,537.1,184.6,538.2z"/>
	<path d="M233.1,114.4c22-29.2,43.7-58,67.1-89.1c2.5-3.3,7.5-3.5,10.1-0.2c23.5,29,46.2,57.1,72.1,89.1c3.4,4.2,0.5,10.4-4.9,10.4
		H238.1C232.9,124.6,229.9,118.6,233.1,114.4z"/>
	<path d="M261,610.4c15.5,30,27.3,53.1,45.6,88.5c19.5-34.6,32.3-57.1,46.7-82.6c24.4,65.6-21.4,106.4-46.2,164.8
		C280.3,721.4,232.5,679.7,261,610.4z"/>
	<path d="M370.1,555.2c-45.6,51-97.6,47.6-130.8,0H370.1z"/>
	<path d="M307.5,351.1c-34.5,0-43.2-29.5-43.1-45.6c0-17.1,13.3-42.9,43.1-42.9c29.8,0,42,28.7,42,43.7
		C349.5,323.6,340.1,351.1,307.5,351.1z"/>
</g>
</svg>
